<svg xmlns="http://www.w3.org/2000/svg" xmlns:xlink="http://www.w3.org/1999/xlink" contentStyleType="text/css" data-diagram-type="ACTIVITY" height="5684.375px" preserveAspectRatio="none" style="width:1371px;height:5684px;background:#FEFEFE;" version="1.1" viewBox="0 0 1371 5684" width="1371.875px" zoomAndPan="magnify"><title>SmartSure - Activity Diagram (Full Process Flow)</title><defs/><g><rect fill="#FEFEFE" height="5684.375" style="stroke:none;stroke-width:3.125;" width="1371.875" x="0" y="0"/><g class="title" data-source-line="19"><text fill="#000000" font-family="sans-serif" font-size="43.75" font-weight="bold" lengthAdjust="spacing" textLength="1207.8033" x="77.5164" y="103.1097">SmartSure - Activity Diagram (Full Process Flow)</text></g><ellipse cx="693.4063" cy="179.0527" fill="#222222" rx="31.25" ry="31.25" style="stroke:#222222;stroke-width:3.125;"/><rect fill="#EBF5FB" height="102.5146" rx="39.0625" ry="39.0625" style="stroke:#2E86C1;stroke-width:1.5625;" width="430.4031" x="478.2047" y="272.8027"/><text fill="#000000" font-family="sans-serif" font-size="34.375" lengthAdjust="spacing" textLength="367.9031" x="509.4547" y="335.9604">&#1705;&#1575;&#1585;&#1576;&#1585; &#1608;&#1575;&#1585;&#1583; &#1587;&#1575;&#1605;&#1575;&#1606;&#1607; &#1605;&#1740;&#8204;&#1588;&#1608;&#1583;</text><rect fill="#EBF5FB" height="102.5146" rx="39.0625" ry="39.0625" style="stroke:#2E86C1;stroke-width:1.5625;" width="651.1215" x="367.8455" y="437.8174"/><text fill="#000000" font-family="sans-serif" font-size="34.375" lengthAdjust="spacing" textLength="588.6215" x="399.0955" y="500.975">&#1579;&#1576;&#1578;&#8204;&#1606;&#1575;&#1605; &#1740;&#1575; &#1608;&#1585;&#1608;&#1583; &#1576;&#1575; &#1575;&#1581;&#1585;&#1575;&#1586; &#1607;&#1608;&#1740;&#1578; &#1583;&#1608; &#1605;&#1585;&#1581;&#1604;&#1607;&#8204;&#1575;&#1740;</text><rect fill="#EBF5FB" height="102.5146" rx="39.0625" ry="39.0625" style="stroke:#2E86C1;stroke-width:1.5625;" width="687.1246" x="349.844" y="602.832"/><text fill="#000000" font-family="sans-serif" font-size="34.375" lengthAdjust="spacing" textLength="624.6246" x="381.094" y="665.9897">&#1575;&#1606;&#1578;&#1582;&#1575;&#1576; &#1606;&#1608;&#1593; &#1576;&#1740;&#1605;&#1607; (&#1582;&#1608;&#1583;&#1585;&#1608;&#1548; &#1605;&#1606;&#1586;&#1604;&#1548; &#1587;&#1604;&#1575;&#1605;&#1578;&#1548; &#1576;&#1575;&#1585;)</text><rect fill="#EBF5FB" height="102.5146" rx="39.0625" ry="39.0625" style="stroke:#2E86C1;stroke-width:1.5625;" width="563.002" x="411.9053" y="767.8467"/><text fill="#000000" font-family="sans-serif" font-size="34.375" lengthAdjust="spacing" textLength="500.502" x="443.1553" y="831.0043">&#1601;&#1593;&#1575;&#1604;&#8204;&#1587;&#1575;&#1586;&#1740; &#1576;&#1740;&#1605;&#1607;&#8204;&#1606;&#1575;&#1605;&#1607; &#1608; &#1662;&#1585;&#1583;&#1575;&#1582;&#1578; &#1575;&#1608;&#1604;&#1740;&#1607;</text><polygon fill="#EBF5FB" points="500.2903,932.8613,886.5223,932.8613,924.0223,970.3613,886.5223,1007.8613,500.2903,1007.8613,462.7903,970.3613,500.2903,932.8613" style="stroke:#2E86C1;stroke-width:1.5625;"/><text fill="#000000" font-family="sans-serif" font-size="34.375" lengthAdjust="spacing" textLength="386.232" x="500.2903" y="982.2617">&#1570;&#1740;&#1575; &#1583;&#1587;&#1578;&#1711;&#1575;&#1607; IoT &#1601;&#1593;&#1575;&#1604; &#1575;&#1587;&#1578;&#1567;</text><text fill="#000000" font-family="sans-serif" font-size="34.375" lengthAdjust="spacing" textLength="39.3768" x="423.4135" y="962.2543">&#1576;&#1604;&#1607;</text><text fill="#000000" font-family="sans-serif" font-size="34.375" lengthAdjust="spacing" textLength="50.589" x="924.0223" y="962.2543">&#1582;&#1740;&#1585;</text><rect fill="#EBF5FB" height="102.5146" rx="39.0625" ry="39.0625" style="stroke:#2E86C1;stroke-width:1.5625;" width="460.3973" x="133.5838" y="1039.1113"/><text fill="#000000" font-family="sans-serif" font-size="34.375" lengthAdjust="spacing" textLength="397.8973" x="164.8338" y="1102.269">Pair &#1583;&#1587;&#1578;&#1711;&#1575;&#1607; &#1576;&#1575; &#1581;&#1587;&#1575;&#1576; &#1705;&#1575;&#1585;&#1576;&#1585;</text><rect fill="#EBF5FB" height="102.5146" rx="39.0625" ry="39.0625" style="stroke:#2E86C1;stroke-width:1.5625;" width="583.815" x="71.875" y="1204.126"/><text fill="#000000" font-family="sans-serif" font-size="34.375" lengthAdjust="spacing" textLength="521.315" x="103.125" y="1267.2836">&#1588;&#1585;&#1608;&#1593; &#1662;&#1575;&#1740;&#1588; &#1604;&#1581;&#1592;&#1607;&#8204;&#1575;&#1740; &#1583;&#1575;&#1583;&#1607;&#8204;&#1607;&#1575;&#1740; &#1581;&#1587;&#1711;&#1585;</text><rect fill="#EBF5FB" height="102.5146" rx="39.0625" ry="39.0625" style="stroke:#2E86C1;stroke-width:1.5625;" width="609.6802" x="718.19" y="1039.1113"/><text fill="#000000" font-family="sans-serif" font-size="34.375" lengthAdjust="spacing" textLength="547.1802" x="749.44" y="1102.269">&#1606;&#1605;&#1575;&#1740;&#1588; &#1662;&#1740;&#1575;&#1605; "&#1575;&#1578;&#1589;&#1575;&#1604; &#1583;&#1587;&#1578;&#1711;&#1575;&#1607; &#1604;&#1575;&#1586;&#1605; &#1575;&#1587;&#1578;"</text><ellipse cx="1023.0301" cy="1238.501" fill="none" rx="34.375" ry="34.375" style="stroke:#222222;stroke-width:3.125;"/><ellipse cx="1023.0301" cy="1238.501" fill="#222222" rx="18.75" ry="18.75" style="stroke:#222222;stroke-width:3.125;"/><rect fill="none" height="948.4863" style="stroke:#000000;stroke-width:4.6875;" width="1237.5458" x="34.375" y="1337.8906"/><path d="M485.672,1337.8906 L485.672,1366.9434 L454.422,1398.1934 L34.375,1398.1934" fill="none" style="stroke:#000000;stroke-width:4.6875;"/><text fill="#000000" font-family="sans-serif" font-size="43.75" lengthAdjust="spacing" textLength="420.047" x="43.75" y="1381.6254">&#1606;&#1592;&#1575;&#1585;&#1578; &#1608; &#1585;&#1601;&#1578;&#1575;&#1585; &#1607;&#1608;&#1588;&#1605;&#1606;&#1583;</text><rect fill="#EBF5FB" height="102.5146" rx="39.0625" ry="39.0625" style="stroke:#2E86C1;stroke-width:1.5625;" width="379.277" x="503.7678" y="1451.3184"/><text fill="#000000" font-family="sans-serif" font-size="34.375" lengthAdjust="spacing" textLength="316.777" x="535.0178" y="1514.476">&#1580;&#1605;&#1593;&#8204;&#1570;&#1608;&#1585;&#1740; &#1583;&#1575;&#1583;&#1607;&#8204;&#1607;&#1575;&#1740; IoT</text><rect fill="#EBF5FB" height="102.5146" rx="39.0625" ry="39.0625" style="stroke:#2E86C1;stroke-width:1.5625;" width="522.9706" x="431.921" y="1616.333"/><text fill="#000000" font-family="sans-serif" font-size="34.375" lengthAdjust="spacing" textLength="460.4706" x="463.171" y="1679.4907">&#1578;&#1581;&#1604;&#1740;&#1604; &#1585;&#1601;&#1578;&#1575;&#1585; &#1705;&#1575;&#1585;&#1576;&#1585; &#1578;&#1608;&#1587;&#1591; &#1605;&#1583;&#1604; AI</text><polygon fill="#EBF5FB" points="531.8958,1781.3477,854.9168,1781.3477,892.4168,1818.8477,854.9168,1856.3477,531.8958,1856.3477,494.3958,1818.8477,531.8958,1781.3477" style="stroke:#2E86C1;stroke-width:1.5625;"/><text fill="#000000" font-family="sans-serif" font-size="34.375" lengthAdjust="spacing" textLength="323.0209" x="531.8958" y="1830.748">&#1606;&#1575;&#1607;&#1606;&#1580;&#1575;&#1585;&#1740; &#1740;&#1575; &#1585;&#1740;&#1587;&#1705; &#1576;&#1575;&#1604;&#1575;&#1567;</text><text fill="#000000" font-family="sans-serif" font-size="34.375" lengthAdjust="spacing" textLength="39.3768" x="455.019" y="1810.7407">&#1576;&#1604;&#1607;</text><text fill="#000000" font-family="sans-serif" font-size="34.375" lengthAdjust="spacing" textLength="50.589" x="892.4168" y="1810.7407">&#1582;&#1740;&#1585;</text><rect fill="#EBF5FB" height="102.5146" rx="39.0625" ry="39.0625" style="stroke:#2E86C1;stroke-width:1.5625;" width="404.2191" x="194.3695" y="1887.5977"/><text fill="#000000" font-family="sans-serif" font-size="34.375" lengthAdjust="spacing" textLength="341.7191" x="225.6195" y="1950.7553">&#1575;&#1585;&#1587;&#1575;&#1604; &#1607;&#1588;&#1583;&#1575;&#1585; &#1662;&#1740;&#1588;&#1711;&#1740;&#1585;&#1575;&#1606;&#1607;</text><rect fill="#EBF5FB" height="102.5146" rx="39.0625" ry="39.0625" style="stroke:#2E86C1;stroke-width:1.5625;" width="624.5346" x="84.2117" y="2052.6123"/><text fill="#000000" font-family="sans-serif" font-size="34.375" lengthAdjust="spacing" textLength="562.0346" x="115.4617" y="2115.77">&#1576;&#1607;&#8204;&#1585;&#1608;&#1586;&#1585;&#1587;&#1575;&#1606;&#1740; &#1575;&#1605;&#1578;&#1740;&#1575;&#1586; &#1585;&#1740;&#1587;&#1705; &#1608; &#1581;&#1602;&#8204;&#1576;&#1740;&#1605;&#1607; &#1662;&#1608;&#1740;&#1575;</text><rect fill="#EBF5FB" height="102.5146" rx="39.0625" ry="39.0625" style="stroke:#2E86C1;stroke-width:1.5625;" width="438.1744" x="771.2463" y="1887.5977"/><text fill="#000000" font-family="sans-serif" font-size="34.375" lengthAdjust="spacing" textLength="375.6744" x="802.4963" y="1950.7553">&#1575;&#1583;&#1575;&#1605;&#1607; &#1662;&#1575;&#1740;&#1588; &#1608; &#1584;&#1582;&#1740;&#1585;&#1607; &#1583;&#1575;&#1583;&#1607;&#8204;&#1607;&#1575;</text><polygon fill="#EBF5FB" points="693.4063,2173.877,730.9063,2211.377,693.4063,2248.877,655.9063,2211.377,693.4063,2173.877" style="stroke:#2E86C1;stroke-width:1.5625;"/><rect fill="none" height="1643.5303" style="stroke:#000000;stroke-width:4.6875;" width="1235.4675" x="102.3685" y="2317.627"/><path d="M524.4205,2317.627 L524.4205,2346.6797 L493.1705,2377.9297 L102.3685,2377.9297" fill="none" style="stroke:#000000;stroke-width:4.6875;"/><text fill="#000000" font-family="sans-serif" font-size="43.75" lengthAdjust="spacing" textLength="390.802" x="111.7435" y="2361.3617">&#1608;&#1602;&#1608;&#1593; &#1581;&#1575;&#1583;&#1579;&#1607; &#1608; &#1582;&#1587;&#1575;&#1585;&#1578;</text><polygon fill="#EBF5FB" points="467.4595,2431.0547,919.3531,2431.0547,956.8531,2468.5547,919.3531,2506.0547,467.4595,2506.0547,429.9595,2468.5547,467.4595,2431.0547" style="stroke:#2E86C1;stroke-width:1.5625;"/><text fill="#000000" font-family="sans-serif" font-size="34.375" lengthAdjust="spacing" textLength="451.8936" x="467.4595" y="2480.455">&#1581;&#1575;&#1583;&#1579;&#1607; &#1578;&#1608;&#1587;&#1591; IoT &#1588;&#1606;&#1575;&#1587;&#1575;&#1740;&#1740; &#1588;&#1583;&#1567;</text><text fill="#000000" font-family="sans-serif" font-size="34.375" lengthAdjust="spacing" textLength="39.3768" x="390.5827" y="2460.4477">&#1576;&#1604;&#1607;</text><text fill="#000000" font-family="sans-serif" font-size="34.375" lengthAdjust="spacing" textLength="50.589" x="956.8531" y="2460.4477">&#1582;&#1740;&#1585;</text><rect fill="#EBF5FB" height="102.5146" rx="39.0625" ry="39.0625" style="stroke:#2E86C1;stroke-width:1.5625;" width="467.6819" x="164.8685" y="2537.3047"/><text fill="#000000" font-family="sans-serif" font-size="34.375" lengthAdjust="spacing" textLength="405.1819" x="196.1185" y="2600.4623">&#1579;&#1576;&#1578; &#1582;&#1608;&#1583;&#1705;&#1575;&#1585; &#1581;&#1575;&#1583;&#1579;&#1607; &#1583;&#1585; &#1587;&#1740;&#1587;&#1578;&#1605;</text><rect fill="#EBF5FB" height="102.5146" rx="39.0625" ry="39.0625" style="stroke:#2E86C1;stroke-width:1.5625;" width="574.4659" x="700.8701" y="2537.3047"/><text fill="#000000" font-family="sans-serif" font-size="34.375" lengthAdjust="spacing" textLength="511.9659" x="732.1201" y="2600.4623">&#1579;&#1576;&#1578; &#1583;&#1587;&#1578;&#1740; &#1581;&#1575;&#1583;&#1579;&#1607; &#1578;&#1608;&#1587;&#1591; &#1705;&#1575;&#1585;&#1576;&#1585; &#1583;&#1585; &#1575;&#1662;</text><polygon fill="#EBF5FB" points="693.4063,2658.5693,730.9063,2696.0693,693.4063,2733.5693,655.9063,2696.0693,693.4063,2658.5693" style="stroke:#2E86C1;stroke-width:1.5625;"/><rect fill="#EBF5FB" height="102.5146" rx="39.0625" ry="39.0625" style="stroke:#2E86C1;stroke-width:1.5625;" width="723.3963" x="331.7081" y="2796.0693"/><text fill="#000000" font-family="sans-serif" font-size="34.375" lengthAdjust="spacing" textLength="660.8963" x="362.9581" y="2859.227">&#1580;&#1605;&#1593;&#8204;&#1570;&#1608;&#1585;&#1740; &#1605;&#1583;&#1575;&#1585;&#1705; (&#1593;&#1705;&#1587;&#1548; &#1608;&#1740;&#1583;&#1740;&#1608;&#1548; &#1601;&#1575;&#1705;&#1578;&#1608;&#1585;&#1548; &#1606;&#1587;&#1582;&#1607;)</text><rect fill="#EBF5FB" height="102.5146" rx="39.0625" ry="39.0625" style="stroke:#2E86C1;stroke-width:1.5625;" width="491.9693" x="447.4216" y="2961.084"/><text fill="#000000" font-family="sans-serif" font-size="34.375" lengthAdjust="spacing" textLength="429.4693" x="478.6716" y="3024.2416">&#1575;&#1585;&#1587;&#1575;&#1604; &#1583;&#1575;&#1583;&#1607;&#8204;&#1607;&#1575; &#1576;&#1607; &#1587;&#1585;&#1608;&#1585; &#1605;&#1585;&#1705;&#1586;&#1740;</text><rect fill="#EBF5FB" height="102.5146" rx="39.0625" ry="39.0625" style="stroke:#2E86C1;stroke-width:1.5625;" width="562.9517" x="411.9305" y="3126.0986"/><text fill="#000000" font-family="sans-serif" font-size="34.375" lengthAdjust="spacing" textLength="500.4517" x="443.1805" y="3189.2563">&#1575;&#1580;&#1585;&#1575;&#1740; &#1605;&#1583;&#1604; AI &#1576;&#1585;&#1575;&#1740; &#1578;&#1582;&#1605;&#1740;&#1606; &#1582;&#1587;&#1575;&#1585;&#1578;</text><polygon fill="#EBF5FB" points="550.6527,3291.1133,836.1599,3291.1133,873.6599,3328.6133,836.1599,3366.1133,550.6527,3366.1133,513.1527,3328.6133,550.6527,3291.1133" style="stroke:#2E86C1;stroke-width:1.5625;"/><text fill="#000000" font-family="sans-serif" font-size="34.375" lengthAdjust="spacing" textLength="285.5072" x="550.6527" y="3340.5136">&#1575;&#1593;&#1578;&#1605;&#1575;&#1583; &#1605;&#1583;&#1604; &gt; 90%</text><text fill="#000000" font-family="sans-serif" font-size="34.375" lengthAdjust="spacing" textLength="39.3768" x="473.7759" y="3320.5063">&#1576;&#1604;&#1607;</text><text fill="#000000" font-family="sans-serif" font-size="34.375" lengthAdjust="spacing" textLength="50.589" x="873.6599" y="3320.5063">&#1582;&#1740;&#1585;</text><rect fill="#EBF5FB" height="102.5146" rx="39.0625" ry="39.0625" style="stroke:#2E86C1;stroke-width:1.5625;" width="351.4816" x="237.674" y="3397.3633"/><text fill="#000000" font-family="sans-serif" font-size="34.375" lengthAdjust="spacing" textLength="288.9816" x="268.924" y="3460.5209">&#1578;&#1575;&#1740;&#1740;&#1583; &#1582;&#1608;&#1583;&#1705;&#1575;&#1585; &#1582;&#1587;&#1575;&#1585;&#1578;</text><rect fill="#EBF5FB" height="102.5146" rx="39.0625" ry="39.0625" style="stroke:#2E86C1;stroke-width:1.5625;" width="480.69" x="173.0698" y="3562.3779"/><text fill="#000000" font-family="sans-serif" font-size="34.375" lengthAdjust="spacing" textLength="418.19" x="204.3198" y="3625.5356">&#1575;&#1585;&#1587;&#1575;&#1604; &#1606;&#1578;&#1740;&#1580;&#1607; &#1576;&#1607; &#1583;&#1585;&#1711;&#1575;&#1607; &#1662;&#1585;&#1583;&#1575;&#1582;&#1578;</text><rect fill="#EBF5FB" height="102.5146" rx="39.0625" ry="39.0625" style="stroke:#2E86C1;stroke-width:1.5625;" width="471.1563" x="177.8366" y="3727.3926"/><text fill="#000000" font-family="sans-serif" font-size="34.375" lengthAdjust="spacing" textLength="408.6563" x="209.0866" y="3790.5502">&#1662;&#1585;&#1583;&#1575;&#1582;&#1578; &#1601;&#1608;&#1585;&#1740; &#1582;&#1587;&#1575;&#1585;&#1578; &#1580;&#1586;&#1574;&#1740;</text><rect fill="#EBF5FB" height="102.5146" rx="39.0625" ry="39.0625" style="stroke:#2E86C1;stroke-width:1.5625;" width="448.0606" x="749.3675" y="3397.3633"/><text fill="#000000" font-family="sans-serif" font-size="34.375" lengthAdjust="spacing" textLength="385.5606" x="780.6175" y="3460.5209">&#1575;&#1585;&#1580;&#1575;&#1593; &#1576;&#1607; &#1705;&#1575;&#1585;&#1588;&#1606;&#1575;&#1587; &#1582;&#1587;&#1575;&#1585;&#1578;</text><rect fill="#EBF5FB" height="102.5146" rx="39.0625" ry="39.0625" style="stroke:#2E86C1;stroke-width:1.5625;" width="412.9974" x="766.8991" y="3562.3779"/><text fill="#000000" font-family="sans-serif" font-size="34.375" lengthAdjust="spacing" textLength="350.4974" x="798.1491" y="3625.5356">&#1576;&#1585;&#1585;&#1587;&#1740; &#1583;&#1587;&#1578;&#1740;&#1548; &#1578;&#1571;&#1740;&#1740;&#1583; &#1740;&#1575; &#1585;&#1583;</text><rect fill="#EBF5FB" height="102.5146" rx="39.0625" ry="39.0625" style="stroke:#2E86C1;stroke-width:1.5625;" width="514.2761" x="716.2598" y="3727.3926"/><text fill="#000000" font-family="sans-serif" font-size="34.375" lengthAdjust="spacing" textLength="451.7761" x="747.5098" y="3790.5502">&#1583;&#1585; &#1589;&#1608;&#1585;&#1578; &#1578;&#1575;&#1740;&#1740;&#1583; &#8594; &#1662;&#1585;&#1583;&#1575;&#1582;&#1578; &#1606;&#1607;&#1575;&#1740;&#1740;</text><polygon fill="#EBF5FB" points="693.4063,3848.6572,730.9063,3886.1572,693.4063,3923.6572,655.9063,3886.1572,693.4063,3848.6572" style="stroke:#2E86C1;stroke-width:1.5625;"/><rect fill="none" height="583.4717" style="stroke:#000000;stroke-width:4.6875;" width="805.5344" x="290.6391" y="3992.4072"/><path d="M613.7409,3992.4072 L613.7409,4021.46 L582.4909,4052.71 L290.6391,4052.71" fill="none" style="stroke:#000000;stroke-width:4.6875;"/><text fill="#000000" font-family="sans-serif" font-size="43.75" lengthAdjust="spacing" textLength="291.8518" x="300.0141" y="4036.142">&#1662;&#1585;&#1583;&#1575;&#1582;&#1578; &#1608; &#1575;&#1605;&#1606;&#1740;&#1578;</text><rect fill="#EBF5FB" height="102.5146" rx="39.0625" ry="39.0625" style="stroke:#2E86C1;stroke-width:1.5625;" width="471.5591" x="457.6267" y="4105.835"/><text fill="#000000" font-family="sans-serif" font-size="34.375" lengthAdjust="spacing" textLength="409.0591" x="488.8767" y="4168.9926">&#1579;&#1576;&#1578; &#1578;&#1585;&#1575;&#1705;&#1606;&#1588; &#1583;&#1585; &#1587;&#1740;&#1587;&#1578;&#1605; &#1605;&#1575;&#1604;&#1740;</text><rect fill="#EBF5FB" height="102.5146" rx="39.0625" ry="39.0625" style="stroke:#2E86C1;stroke-width:1.5625;" width="510.6506" x="438.081" y="4270.8496"/><text fill="#000000" font-family="sans-serif" font-size="34.375" lengthAdjust="spacing" textLength="448.1506" x="469.331" y="4334.0073">&#1575;&#1585;&#1587;&#1575;&#1604; &#1585;&#1587;&#1740;&#1583; &#1583;&#1740;&#1580;&#1740;&#1578;&#1575;&#1604; &#1576;&#1585;&#1575;&#1740; &#1705;&#1575;&#1585;&#1576;&#1585;</text><rect fill="#EBF5FB" height="102.5146" rx="39.0625" ry="39.0625" style="stroke:#2E86C1;stroke-width:1.5625;" width="743.0344" x="321.8891" y="4435.8643"/><text fill="#000000" font-family="sans-serif" font-size="34.375" lengthAdjust="spacing" textLength="680.5344" x="353.1391" y="4499.0219">&#1579;&#1576;&#1578; &#1607;&#1588; &#1578;&#1585;&#1575;&#1705;&#1606;&#1588; &#1583;&#1585; &#1576;&#1604;&#1575;&#1705;&#8204;&#1670;&#1740;&#1606; &#1576;&#1585;&#1575;&#1740; &#1589;&#1581;&#1578;&#8204;&#1587;&#1606;&#1580;&#1740;</text><rect fill="none" height="913.501" style="stroke:#000000;stroke-width:4.6875;" width="821.0602" x="282.8762" y="4607.1289"/><path d="M602.1542,4607.1289 L602.1542,4636.1816 L570.9042,4667.4316 L282.8762,4667.4316" fill="none" style="stroke:#000000;stroke-width:4.6875;"/><text fill="#000000" font-family="sans-serif" font-size="43.75" lengthAdjust="spacing" textLength="288.028" x="292.2512" y="4650.8636">&#1605;&#1583;&#1740;&#1585;&#1740;&#1578; &#1608; &#1578;&#1581;&#1604;&#1740;&#1604;</text><rect fill="#EBF5FB" height="102.5146" rx="39.0625" ry="39.0625" style="stroke:#2E86C1;stroke-width:1.5625;" width="572.1664" x="407.3231" y="4720.5566"/><text fill="#000000" font-family="sans-serif" font-size="34.375" lengthAdjust="spacing" textLength="509.6664" x="438.5731" y="4783.7143">&#1576;&#1607;&#8204;&#1585;&#1608;&#1586;&#1585;&#1587;&#1575;&#1606;&#1740; &#1608;&#1590;&#1593;&#1740;&#1578; &#1576;&#1740;&#1605;&#1607;&#8204;&#1606;&#1575;&#1605;&#1607; &#1608; &#1575;&#1583;&#1593;&#1575;</text><rect fill="#EBF5FB" height="102.5146" rx="39.0625" ry="39.0625" style="stroke:#2E86C1;stroke-width:1.5625;" width="588.1622" x="399.3252" y="4885.5713"/><text fill="#000000" font-family="sans-serif" font-size="34.375" lengthAdjust="spacing" textLength="525.6622" x="430.5752" y="4948.7289">&#1575;&#1585;&#1587;&#1575;&#1604; &#1575;&#1593;&#1604;&#1575;&#1606; &#1576;&#1607; &#1705;&#1575;&#1585;&#1576;&#1585; (SMS / Push)</text><rect fill="#EBF5FB" height="102.5146" rx="39.0625" ry="39.0625" style="stroke:#2E86C1;stroke-width:1.5625;" width="483.5266" x="451.643" y="5050.5859"/><text fill="#000000" font-family="sans-serif" font-size="34.375" lengthAdjust="spacing" textLength="421.0266" x="482.893" y="5113.7436">&#1576;&#1607;&#8204;&#1585;&#1608;&#1586;&#1585;&#1587;&#1575;&#1606;&#1740; &#1583;&#1575;&#1588;&#1576;&#1608;&#1585;&#1583; &#1605;&#1583;&#1740;&#1585;&#1740;&#1578;&#1740;</text><rect fill="#EBF5FB" height="102.5146" rx="39.0625" ry="39.0625" style="stroke:#2E86C1;stroke-width:1.5625;" width="758.5602" x="314.1262" y="5215.6006"/><text fill="#000000" font-family="sans-serif" font-size="34.375" lengthAdjust="spacing" textLength="696.0602" x="345.3762" y="5278.7582">&#1578;&#1581;&#1604;&#1740;&#1604; &#1583;&#1575;&#1583;&#1607;&#8204;&#1607;&#1575;&#1740; &#1585;&#1740;&#1587;&#1705; &#1608; &#1578;&#1602;&#1604;&#1576; &#1578;&#1608;&#1587;&#1591; AI Analyst</text><rect fill="#EBF5FB" height="102.5146" rx="39.0625" ry="39.0625" style="stroke:#2E86C1;stroke-width:1.5625;" width="700.3845" x="343.214" y="5380.6152"/><text fill="#000000" font-family="sans-serif" font-size="34.375" lengthAdjust="spacing" textLength="637.8845" x="374.464" y="5443.7729">&#1576;&#1607;&#1576;&#1608;&#1583; &#1605;&#1583;&#1604;&#8204;&#1607;&#1575;&#1740; &#1607;&#1608;&#1588; &#1605;&#1589;&#1606;&#1608;&#1593;&#1740; (Retraining)</text><ellipse cx="693.4063" cy="5617.5049" fill="none" rx="34.375" ry="34.375" style="stroke:#222222;stroke-width:3.125;"/><ellipse cx="693.4063" cy="5617.5049" fill="#222222" rx="18.75" ry="18.75" style="stroke:#222222;stroke-width:3.125;"/><line style="stroke:#181818;stroke-width:3.125;" x1="693.4063" x2="693.4063" y1="210.3027" y2="272.8027"/><polygon fill="#181818" points="680.9063,241.5527,693.4063,272.8027,705.9063,241.5527,693.4063,254.0527" style="stroke:#181818;stroke-width:3.125;"/><line style="stroke:#181818;stroke-width:3.125;" x1="693.4063" x2="693.4063" y1="375.3174" y2="437.8174"/><polygon fill="#181818" points="680.9063,406.5674,693.4063,437.8174,705.9063,406.5674,693.4063,419.0674" style="stroke:#181818;stroke-width:3.125;"/><line style="stroke:#181818;stroke-width:3.125;" x1="693.4063" x2="693.4063" y1="540.332" y2="602.832"/><polygon fill="#181818" points="680.9063,571.582,693.4063,602.832,705.9063,571.582,693.4063,584.082" style="stroke:#181818;stroke-width:3.125;"/><line style="stroke:#181818;stroke-width:3.125;" x1="693.4063" x2="693.4063" y1="705.3467" y2="767.8467"/><polygon fill="#181818" points="680.9063,736.5967,693.4063,767.8467,705.9063,736.5967,693.4063,749.0967" style="stroke:#181818;stroke-width:3.125;"/><line style="stroke:#181818;stroke-width:3.125;" x1="363.7825" x2="363.7825" y1="1141.626" y2="1204.126"/><polygon fill="#181818" points="351.2825,1172.876,363.7825,1204.126,376.2825,1172.876,363.7825,1185.376" style="stroke:#181818;stroke-width:3.125;"/><line style="stroke:#181818;stroke-width:3.125;" x1="1023.0301" x2="1023.0301" y1="1141.626" y2="1204.126"/><polygon fill="#181818" points="1010.5301,1172.876,1023.0301,1204.126,1035.5301,1172.876,1023.0301,1185.376" style="stroke:#181818;stroke-width:3.125;"/><line style="stroke:#181818;stroke-width:3.125;" x1="462.7903" x2="363.7825" y1="970.3613" y2="970.3613"/><line style="stroke:#181818;stroke-width:3.125;" x1="363.7825" x2="363.7825" y1="970.3613" y2="1039.1113"/><polygon fill="#181818" points="351.2825,1007.8613,363.7825,1039.1113,376.2825,1007.8613,363.7825,1020.3613" style="stroke:#181818;stroke-width:3.125;"/><line style="stroke:#181818;stroke-width:3.125;" x1="924.0223" x2="1023.0301" y1="970.3613" y2="970.3613"/><line style="stroke:#181818;stroke-width:3.125;" x1="1023.0301" x2="1023.0301" y1="970.3613" y2="1039.1113"/><polygon fill="#181818" points="1010.5301,1007.8613,1023.0301,1039.1113,1035.5301,1007.8613,1023.0301,1020.3613" style="stroke:#181818;stroke-width:3.125;"/><line style="stroke:#181818;stroke-width:3.125;" x1="363.7825" x2="363.7825" y1="1306.6406" y2="1322.2656"/><line style="stroke:#181818;stroke-width:3.125;" x1="363.7825" x2="693.4063" y1="1322.2656" y2="1322.2656"/><line style="stroke:#181818;stroke-width:3.125;" x1="693.4063" x2="693.4063" y1="1322.2656" y2="1451.3184"/><polygon fill="#181818" points="680.9063,1420.0684,693.4063,1451.3184,705.9063,1420.0684,693.4063,1432.5684" style="stroke:#181818;stroke-width:3.125;"/><line style="stroke:#181818;stroke-width:3.125;" x1="693.4063" x2="693.4063" y1="870.3613" y2="932.8613"/><polygon fill="#181818" points="680.9063,901.6113,693.4063,932.8613,705.9063,901.6113,693.4063,914.1113" style="stroke:#181818;stroke-width:3.125;"/><line style="stroke:#181818;stroke-width:3.125;" x1="693.4063" x2="693.4063" y1="1553.833" y2="1616.333"/><polygon fill="#181818" points="680.9063,1585.083,693.4063,1616.333,705.9063,1585.083,693.4063,1597.583" style="stroke:#181818;stroke-width:3.125;"/><line style="stroke:#181818;stroke-width:3.125;" x1="396.479" x2="396.479" y1="1990.1123" y2="2052.6123"/><polygon fill="#181818" points="383.979,2021.3623,396.479,2052.6123,408.979,2021.3623,396.479,2033.8623" style="stroke:#181818;stroke-width:3.125;"/><line style="stroke:#181818;stroke-width:3.125;" x1="494.3958" x2="396.479" y1="1818.8477" y2="1818.8477"/><line style="stroke:#181818;stroke-width:3.125;" x1="396.479" x2="396.479" y1="1818.8477" y2="1887.5977"/><polygon fill="#181818" points="383.979,1856.3477,396.479,1887.5977,408.979,1856.3477,396.479,1868.8477" style="stroke:#181818;stroke-width:3.125;"/><line style="stroke:#181818;stroke-width:3.125;" x1="892.4168" x2="990.3336" y1="1818.8477" y2="1818.8477"/><line style="stroke:#181818;stroke-width:3.125;" x1="990.3336" x2="990.3336" y1="1818.8477" y2="1887.5977"/><polygon fill="#181818" points="977.8336,1856.3477,990.3336,1887.5977,1002.8336,1856.3477,990.3336,1868.8477" style="stroke:#181818;stroke-width:3.125;"/><line style="stroke:#181818;stroke-width:3.125;" x1="396.479" x2="396.479" y1="2155.127" y2="2211.377"/><line style="stroke:#181818;stroke-width:3.125;" x1="396.479" x2="655.9063" y1="2211.377" y2="2211.377"/><polygon fill="#181818" points="624.6563,2198.877,655.9063,2211.377,624.6563,2223.877,637.1563,2211.377" style="stroke:#181818;stroke-width:3.125;"/><line style="stroke:#181818;stroke-width:3.125;" x1="990.3336" x2="990.3336" y1="1990.1123" y2="2211.377"/><line style="stroke:#181818;stroke-width:3.125;" x1="990.3336" x2="730.9063" y1="2211.377" y2="2211.377"/><polygon fill="#181818" points="762.1563,2198.877,730.9063,2211.377,762.1563,2223.877,749.6563,2211.377" style="stroke:#181818;stroke-width:3.125;"/><line style="stroke:#181818;stroke-width:3.125;" x1="693.4063" x2="693.4063" y1="1718.8477" y2="1781.3477"/><polygon fill="#181818" points="680.9063,1750.0977,693.4063,1781.3477,705.9063,1750.0977,693.4063,1762.5977" style="stroke:#181818;stroke-width:3.125;"/><line style="stroke:#181818;stroke-width:3.125;" x1="429.9595" x2="398.7095" y1="2468.5547" y2="2468.5547"/><line style="stroke:#181818;stroke-width:3.125;" x1="398.7095" x2="398.7095" y1="2468.5547" y2="2537.3047"/><polygon fill="#181818" points="386.2095,2506.0547,398.7095,2537.3047,411.2095,2506.0547,398.7095,2518.5547" style="stroke:#181818;stroke-width:3.125;"/><line style="stroke:#181818;stroke-width:3.125;" x1="956.8531" x2="988.1031" y1="2468.5547" y2="2468.5547"/><line style="stroke:#181818;stroke-width:3.125;" x1="988.1031" x2="988.1031" y1="2468.5547" y2="2537.3047"/><polygon fill="#181818" points="975.6031,2506.0547,988.1031,2537.3047,1000.6031,2506.0547,988.1031,2518.5547" style="stroke:#181818;stroke-width:3.125;"/><line style="stroke:#181818;stroke-width:3.125;" x1="398.7095" x2="398.7095" y1="2639.8193" y2="2696.0693"/><line style="stroke:#181818;stroke-width:3.125;" x1="398.7095" x2="655.9063" y1="2696.0693" y2="2696.0693"/><polygon fill="#181818" points="624.6563,2683.5693,655.9063,2696.0693,624.6563,2708.5693,637.1563,2696.0693" style="stroke:#181818;stroke-width:3.125;"/><line style="stroke:#181818;stroke-width:3.125;" x1="988.1031" x2="988.1031" y1="2639.8193" y2="2696.0693"/><line style="stroke:#181818;stroke-width:3.125;" x1="988.1031" x2="730.9063" y1="2696.0693" y2="2696.0693"/><polygon fill="#181818" points="762.1563,2683.5693,730.9063,2696.0693,762.1563,2708.5693,749.6563,2696.0693" style="stroke:#181818;stroke-width:3.125;"/><line style="stroke:#181818;stroke-width:3.125;" x1="693.4063" x2="693.4063" y1="2733.5693" y2="2796.0693"/><polygon fill="#181818" points="680.9063,2764.8193,693.4063,2796.0693,705.9063,2764.8193,693.4063,2777.3193" style="stroke:#181818;stroke-width:3.125;"/><line style="stroke:#181818;stroke-width:3.125;" x1="693.4063" x2="693.4063" y1="2898.584" y2="2961.084"/><polygon fill="#181818" points="680.9063,2929.834,693.4063,2961.084,705.9063,2929.834,693.4063,2942.334" style="stroke:#181818;stroke-width:3.125;"/><line style="stroke:#181818;stroke-width:3.125;" x1="693.4063" x2="693.4063" y1="3063.5986" y2="3126.0986"/><polygon fill="#181818" points="680.9063,3094.8486,693.4063,3126.0986,705.9063,3094.8486,693.4063,3107.3486" style="stroke:#181818;stroke-width:3.125;"/><line style="stroke:#181818;stroke-width:3.125;" x1="413.4148" x2="413.4148" y1="3499.8779" y2="3562.3779"/><polygon fill="#181818" points="400.9148,3531.1279,413.4148,3562.3779,425.9148,3531.1279,413.4148,3543.6279" style="stroke:#181818;stroke-width:3.125;"/><line style="stroke:#181818;stroke-width:3.125;" x1="413.4148" x2="413.4148" y1="3664.8926" y2="3727.3926"/><polygon fill="#181818" points="400.9148,3696.1426,413.4148,3727.3926,425.9148,3696.1426,413.4148,3708.6426" style="stroke:#181818;stroke-width:3.125;"/><line style="stroke:#181818;stroke-width:3.125;" x1="973.3978" x2="973.3978" y1="3499.8779" y2="3562.3779"/><polygon fill="#181818" points="960.8978,3531.1279,973.3978,3562.3779,985.8978,3531.1279,973.3978,3543.6279" style="stroke:#181818;stroke-width:3.125;"/><line style="stroke:#181818;stroke-width:3.125;" x1="973.3978" x2="973.3978" y1="3664.8926" y2="3727.3926"/><polygon fill="#181818" points="960.8978,3696.1426,973.3978,3727.3926,985.8978,3696.1426,973.3978,3708.6426" style="stroke:#181818;stroke-width:3.125;"/><line style="stroke:#181818;stroke-width:3.125;" x1="513.1527" x2="413.4148" y1="3328.6133" y2="3328.6133"/><line style="stroke:#181818;stroke-width:3.125;" x1="413.4148" x2="413.4148" y1="3328.6133" y2="3397.3633"/><polygon fill="#181818" points="400.9148,3366.1133,413.4148,3397.3633,425.9148,3366.1133,413.4148,3378.6133" style="stroke:#181818;stroke-width:3.125;"/><line style="stroke:#181818;stroke-width:3.125;" x1="873.6599" x2="973.3978" y1="3328.6133" y2="3328.6133"/><line style="stroke:#181818;stroke-width:3.125;" x1="973.3978" x2="973.3978" y1="3328.6133" y2="3397.3633"/><polygon fill="#181818" points="960.8978,3366.1133,973.3978,3397.3633,985.8978,3366.1133,973.3978,3378.6133" style="stroke:#181818;stroke-width:3.125;"/><line style="stroke:#181818;stroke-width:3.125;" x1="413.4148" x2="413.4148" y1="3829.9072" y2="3886.1572"/><line style="stroke:#181818;stroke-width:3.125;" x1="413.4148" x2="655.9063" y1="3886.1572" y2="3886.1572"/><polygon fill="#181818" points="624.6563,3873.6572,655.9063,3886.1572,624.6563,3898.6572,637.1563,3886.1572" style="stroke:#181818;stroke-width:3.125;"/><line style="stroke:#181818;stroke-width:3.125;" x1="973.3978" x2="973.3978" y1="3829.9072" y2="3886.1572"/><line style="stroke:#181818;stroke-width:3.125;" x1="973.3978" x2="730.9063" y1="3886.1572" y2="3886.1572"/><polygon fill="#181818" points="762.1563,3873.6572,730.9063,3886.1572,762.1563,3898.6572,749.6563,3886.1572" style="stroke:#181818;stroke-width:3.125;"/><line style="stroke:#181818;stroke-width:3.125;" x1="693.4063" x2="693.4063" y1="3228.6133" y2="3291.1133"/><polygon fill="#181818" points="680.9063,3259.8633,693.4063,3291.1133,705.9063,3259.8633,693.4063,3272.3633" style="stroke:#181818;stroke-width:3.125;"/><line style="stroke:#181818;stroke-width:3.125;" x1="693.4063" x2="693.4063" y1="2248.877" y2="2431.0547"/><polygon fill="#181818" points="680.9063,2399.8047,693.4063,2431.0547,705.9063,2399.8047,693.4063,2412.3047" style="stroke:#181818;stroke-width:3.125;"/><line style="stroke:#181818;stroke-width:3.125;" x1="693.4063" x2="693.4063" y1="4208.3496" y2="4270.8496"/><polygon fill="#181818" points="680.9063,4239.5996,693.4063,4270.8496,705.9063,4239.5996,693.4063,4252.0996" style="stroke:#181818;stroke-width:3.125;"/><line style="stroke:#181818;stroke-width:3.125;" x1="693.4063" x2="693.4063" y1="4373.3643" y2="4435.8643"/><polygon fill="#181818" points="680.9063,4404.6143,693.4063,4435.8643,705.9063,4404.6143,693.4063,4417.1143" style="stroke:#181818;stroke-width:3.125;"/><line style="stroke:#181818;stroke-width:3.125;" x1="693.4063" x2="693.4063" y1="3923.6572" y2="4105.835"/><polygon fill="#181818" points="680.9063,4074.585,693.4063,4105.835,705.9063,4074.585,693.4063,4087.085" style="stroke:#181818;stroke-width:3.125;"/><line style="stroke:#181818;stroke-width:3.125;" x1="693.4063" x2="693.4063" y1="4823.0713" y2="4885.5713"/><polygon fill="#181818" points="680.9063,4854.3213,693.4063,4885.5713,705.9063,4854.3213,693.4063,4866.8213" style="stroke:#181818;stroke-width:3.125;"/><line style="stroke:#181818;stroke-width:3.125;" x1="693.4063" x2="693.4063" y1="4988.0859" y2="5050.5859"/><polygon fill="#181818" points="680.9063,5019.3359,693.4063,5050.5859,705.9063,5019.3359,693.4063,5031.8359" style="stroke:#181818;stroke-width:3.125;"/><line style="stroke:#181818;stroke-width:3.125;" x1="693.4063" x2="693.4063" y1="5153.1006" y2="5215.6006"/><polygon fill="#181818" points="680.9063,5184.3506,693.4063,5215.6006,705.9063,5184.3506,693.4063,5196.8506" style="stroke:#181818;stroke-width:3.125;"/><line style="stroke:#181818;stroke-width:3.125;" x1="693.4063" x2="693.4063" y1="5318.1152" y2="5380.6152"/><polygon fill="#181818" points="680.9063,5349.3652,693.4063,5380.6152,705.9063,5349.3652,693.4063,5361.8652" style="stroke:#181818;stroke-width:3.125;"/><line style="stroke:#181818;stroke-width:3.125;" x1="693.4063" x2="693.4063" y1="4538.3789" y2="4720.5566"/><polygon fill="#181818" points="680.9063,4689.3066,693.4063,4720.5566,705.9063,4689.3066,693.4063,4701.8066" style="stroke:#181818;stroke-width:3.125;"/><line style="stroke:#181818;stroke-width:3.125;" x1="693.4063" x2="693.4063" y1="5483.1299" y2="5583.1299"/><polygon fill="#181818" points="680.9063,5551.8799,693.4063,5583.1299,705.9063,5551.8799,693.4063,5564.3799" style="stroke:#181818;stroke-width:3.125;"/><!--SRC=[dLRBRjjM4DtpAovS5B5G5BMRfcrij82TM80N1OogFy1Aj4rO9WsARf0M0Uf0huLM_O42AL39Z6HLbjn66t_7fRpBb_ISkIH5AT8c3kn8bpDdPiwScSj7whkF_R4UgTAv7OIboy1HXrxjCh2zigEEgdPux0VdwdErLmxTNzpmfNhksYU1VQusYvVLgYgzh8NEUG7-UuVgCtNe_uI_-rM_V5O-jLqFMA43yz2fv62BLVy5F3u-szgPwrtOpE9dktns4lYNNkMPN_K3zKdnWFzo5fKBLptUsigTr4xjYl_2zKxKiLsjERadTbhaRvPI-ylG1_l59yLzFl63YXCafryUVFlrissS5dqlBBc_EcfxstgL0_Nyq5aDY4oV7dop3FZyyPEla6yUS0k0LkY6LIVNfhKzEGhyibEh2Sq5owg5yB1sPjUwgqUwfqSgRil7eT9ZtOqR-6t6BHKt7ZhlV-_e2HuFTwqT_HR64KxY9gtKGqTtwJhYSuLdNGMO0O2w-bR5hRWDYqZfOTm65eu7SJrk4R7xq24UmkX8ty2yfn2nhQT0UUZ43GJVr3U45V0Et65w6zVnKO_n7vEC-AN7n0i0Yw_q5CTrme-Pm4Cd0yjIPb78vPwrmkQ6sNNZTbo7NMlNijnZn7qZTS5WhACPpE145QS1M2EUw3yBAZnrF3ZqM5O1_TavijrWqTEmCf2KUcfE-IxDzKJAcp8ZKA8d2gKDzBkC92Lf3aq5BNC2B603m85KIHCSHn8T53PId7iMWHvjm3_IToRnV68a4Omsad8sc50jz2yinwkunvO5gK9Vhk-f3N3tJlAEo1vIlW9abx91Yw4EzcQu8OhUqNtaC6NwRwYCbIM0JLD-H4M0-deUD2TB7G5ZhF-ZUeQmsZka7viaxMpXRv_6m3GzmoUmSosiIu4hciJ0330MJf3IH38S6Sucio7vD1EmcvZtJ4FOgzl4iydAH8MC3BbdiKdH87vDXrJByRsCGfTuorqpwGnJTMP20Ce_neegMkHGSAHDhnORrOvVcoaQ2EPRetVeV6pwPveaAfzRP2nJvMXdKnI1D5WYoLb3ecm3PSRKD2qVbwEBMIKf2D1OLte28ieqwluWhRmW1BGRtyyPM2qw2ePUwCUcdW9Xp2N29g2zPgDSwIxE6MJ4hqsOtA0ueyovG9QeLnG3roJ5C9Ar1fHRxZFZrwTuaWn4iXIZEUAkuqwDcxcMf8h6joc9OhJK-NlrTElJrUH7fa7SkmiDMC1TadfJnDgNhPHqA5q6kOsOE2uioVWg7UOCNw7IM_stANorg4SodLCJBUbY8gyLYPAb4GMJgK4BPNybTIOJpfl8E8WMxgH_aSeHyhxvn-AAvoYRfsi7Py6yBPFD4Kyd9jDfn5REhb74P5dXIkxD-bm9cOAaAdQAgwLFL7EUwcBvLZ2nk9bM1UnniSskeSTPqsWfqzSTnYUI2v2RaPaibTcG54PoBRFCR06dPQxPTFZwhvwQstprdIfZEpMhQQ5u243kw-Q233ZCcwKVIkeBTNHPEqscRjsUPMScUDgMTvHy5IdRkPlamniplvaZRCWwRk9iks10zpoxYhVMB0U9b0xX7CVSTZo-CoyhEDlyqGa3lDRYtR4WRFCA_Hy0]--></g></svg>